<svg xmlns="http://www.w3.org/2000/svg" version="1.1" xmlns:xlink="http://www.w3.org/1999/xlink" width="2000" height="217" viewBox="0 0 2000 217"><svg xml:space="preserve" width="2000" height="217" data-version="2" data-id="lg_iEtFFSk77OlPpb3W3k" viewBox="0 0 578 217" x="0" y="0"><rect width="100%" height="100%" fill="transparent"></rect><path fill="#000000" d="M97.124 1.966C48.027 5.438 8.804 44.66 5.334 93.756c-.272 3.832 2.753 7.094 6.593 7.094H97.61a6.61 6.61 0 0 0 6.61-6.61V8.56c0-3.84-3.262-6.863-7.093-6.594Zm121.54 92.37c-3.472-49.097-42.694-88.32-91.79-91.79-3.832-.272-7.094 2.753-7.094 6.593v85.682a6.61 6.61 0 0 0 6.61 6.61h85.68c3.84 0 6.863-3.262 6.594-7.093Zm-9.356 20.14c-49.097 3.472-88.32 42.694-91.79 91.79-.272 3.832 2.753 7.094 6.593 7.094h85.682a6.61 6.61 0 0 0 6.61-6.61v-85.68c0-3.84-3.262-6.863-7.093-6.594ZM5.332 123.243c3.472 49.097 42.694 88.32 91.79 91.79 3.832.272 7.094-2.753 7.094-6.593v-85.682a6.61 6.61 0 0 0-6.61-6.61h-85.68c-3.84 0-6.863 3.262-6.594 7.093Zm269.103 73.76h-30.46v-69.09h10.63v59.69h19.83zm21.9 0h-10.53v-69.09h10.53zm39.48 0h-10.43v-59.88h-17.67v-9.21h45.96v9.21h-17.86zm43.9.94q-3.95 0-7.8-.99-3.86-.98-6.86-2.44-3.01-1.46-4.52-2.96l4.99-8.93q1.03.84 3.24 2.21 2.21 1.36 5.12 2.39 2.92 1.04 5.83 1.04 4.79 0 8.04-2.26 3.24-2.25 3.24-6.58 0-3.57-1.88-5.92t-4.93-4.14q-3.06-1.78-6.58-3.43-3.53-1.64-6.73-3.71-3.66-2.44-6.39-6.49-2.72-4.04-2.72-10.43 0-6.3 2.86-10.34 2.87-4.04 7.62-6.06 4.74-2.02 10.38-2.02 4.52 0 7.71.94 3.2.94 5.36 2.25 2.16 1.32 3.38 2.35l-4.98 8.56q-1.6-1.7-4.79-3.15-3.2-1.46-7.15-1.46-4.6 0-7.33 2.11-2.72 2.12-2.72 6.26 0 3.66 2.44 6.25 2.44 2.58 6.25 4.7 3.81 2.11 7.85 4.27 4.04 2.17 7.14 5.08 2.54 2.26 4.33 5.64 1.78 3.38 1.78 7.61 0 6.4-2.96 10.81-2.96 4.42-7.94 6.63t-11.28 2.21m44.09-.94h-10.63v-69.09h15.23q9.03 0 14.48 2.63 5.45 2.63 7.89 7.29 2.45 4.65 2.45 10.67 0 10.99-6.39 16.96-6.4 5.97-19.37 5.97h-3.66zm0-59.88v25.01h3.94q6.21 0 9.4-1.98 3.2-1.97 4.33-4.89 1.13-2.91 1.13-5.64 0-3.29-1.23-6.11-1.22-2.82-4.23-4.6-3-1.79-8.46-1.79zm69.65 59.88h-30.46v-69.09h10.63v59.69h19.83zm21.9 0h-10.53v-69.09h10.53zm39.48 0h-10.43v-59.88h-17.67v-9.21h45.96v9.21h-17.86z"></path></svg></svg>